<svg version="1.1" id="Layer_1" xmlns="http://www.w3.org/2000/svg" xmlns:xlink="http://www.w3.org/1999/xlink" x="0px" y="0px"
	 width="100%" viewBox="0 0 1024 1024" enable-background="new 0 0 1024 1024" xml:space="preserve">
<path fill="#161616" opacity="1.000000" stroke="none" 
	d="
M455.000000,1025.000000 
	C303.333344,1025.000000 152.166672,1025.000000 1.000000,1025.000000 
	C1.000000,683.666687 1.000000,342.333344 1.000000,1.000000 
	C342.333344,1.000000 683.666687,1.000000 1025.000000,1.000000 
	C1025.000000,342.333344 1025.000000,683.666687 1025.000000,1025.000000 
	C835.166687,1025.000000 645.333313,1025.000000 455.000000,1025.000000 
M441.016754,558.970581 
	C441.016754,558.970581 441.068024,558.893982 441.043549,559.623352 
	C441.726379,560.397583 442.409210,561.171753 443.011475,561.979309 
	C443.011475,561.979309 443.058777,561.906067 443.036346,562.668701 
	C443.410492,565.615479 444.252747,568.132202 448.004364,568.004944 
	C448.004364,568.004944 447.977234,568.049805 448.011932,568.779541 
	C449.625122,572.995117 451.302704,577.141113 457.441650,577.116089 
	C457.632446,577.396667 457.823242,577.677246 458.022827,578.752319 
	C458.299896,581.637939 459.791016,582.463745 462.543762,581.432556 
	C462.543762,581.432556 462.644806,581.535950 462.365967,582.239929 
	C463.887329,583.769043 465.180054,585.683838 466.976501,586.749084 
	C471.026581,589.150696 475.205444,591.425903 479.555084,593.207764 
	C484.677063,595.305969 490.010437,596.910278 495.320709,598.499634 
	C496.003082,598.703857 497.096802,597.533569 498.671661,596.894958 
	C499.115936,596.974609 499.560211,597.054321 500.037933,597.917908 
	C502.519714,600.728943 511.093994,600.860229 514.821533,597.983704 
	C516.219177,598.002991 517.616760,598.022278 519.282288,598.644226 
	C520.415527,599.167664 521.661743,600.295044 522.661926,600.107727 
	C526.545166,599.380859 530.466370,598.544556 534.150330,597.156738 
	C537.579712,595.864868 540.725525,593.820190 544.643127,591.721313 
	C545.332520,591.500854 546.021851,591.280457 546.957581,591.706543 
	C551.484192,592.376953 554.527832,590.602234 556.557129,585.867981 
	C557.676331,585.173828 558.795593,584.479614 559.997375,584.377563 
	C560.970459,583.509705 561.943542,582.641846 563.055664,581.323608 
	C563.273682,581.059814 563.553406,580.939758 564.688416,580.980042 
	C568.210144,581.089783 570.108887,579.532349 570.091125,575.401733 
	C570.287781,575.112244 570.561096,574.968079 571.671875,574.975159 
	C574.797241,574.715454 576.107727,572.930725 575.985107,569.979370 
	C575.985107,569.979370 575.901672,569.938416 576.670654,569.959534 
	C579.350647,569.166443 581.591614,568.084778 580.286743,564.312744 
	C580.286743,564.312744 580.565613,564.175964 581.238953,564.520020 
	C582.116455,562.955750 582.993958,561.391479 583.927856,559.929810 
	C583.927856,559.929810 583.822510,559.878723 584.537720,559.826904 
	C584.728821,559.102722 584.919922,558.378479 585.198669,557.246765 
	C585.198669,557.246765 585.574890,557.067261 586.222046,557.477905 
	C587.150757,556.790222 588.486023,556.301331 588.936584,555.379944 
	C590.730286,551.711060 592.175110,547.873840 593.881348,544.159668 
	C600.018860,530.799805 602.361206,516.965332 599.848389,502.326477 
	C599.214722,498.634949 599.753601,494.742157 599.753601,492.237671 
	C597.358887,486.381683 595.499634,481.277191 593.157898,476.404510 
	C592.313293,474.647003 590.310791,473.445984 588.364990,471.801147 
	C588.290100,471.483826 588.215149,471.166473 588.584839,470.072388 
	C587.497192,468.759705 586.409607,467.447052 584.954590,465.642120 
	C577.248657,457.452667 569.542725,449.263214 562.333984,440.665894 
	C561.196472,440.126801 560.059021,439.587677 558.981201,439.000397 
	C558.981201,439.000397 558.958679,439.073700 558.865173,438.359985 
	C557.863464,437.939209 556.861755,437.518433 555.950195,437.042969 
	C555.950195,437.042969 555.910095,437.140472 555.889648,436.408997 
	C549.014221,430.189728 540.276978,428.074707 531.741638,425.544098 
	C531.645264,425.515533 531.220032,426.596069 530.285522,427.175934 
	C529.855652,427.076141 529.425720,426.976349 528.977600,426.148712 
	C528.417786,425.468109 527.857971,424.787506 527.298096,424.106964 
	C526.528503,424.750153 525.758850,425.393341 524.238098,426.092529 
	C523.490601,426.018127 522.743042,425.943726 521.867432,425.106873 
	C520.355347,424.407623 518.756042,422.963837 517.345154,423.128967 
	C507.561096,424.274384 497.800262,425.656036 488.075989,427.233185 
	C486.624786,427.468567 485.404297,429.126709 484.033051,430.038239 
	C484.033051,430.038239 484.121765,430.081604 483.412720,430.046417 
	C482.922729,430.542572 482.432770,431.038757 481.604492,431.886902 
	C481.604492,431.886902 481.118073,431.845001 480.668579,431.279938 
	C476.904419,430.700958 463.568695,438.156250 462.369781,441.546661 
	C462.283295,441.791077 462.544586,442.158417 462.544922,442.566040 
	C462.544922,442.566040 462.436096,442.652618 461.666412,442.316223 
	C457.660339,441.749939 456.508667,443.999481 456.499786,447.517517 
	C456.499786,447.517517 456.435822,447.599091 455.679779,447.335907 
	C451.696045,447.461151 449.932343,449.451385 450.472229,453.466614 
	C450.472229,453.466614 450.453186,453.546051 449.670593,453.268341 
	C445.035614,453.169739 445.594574,456.465546 445.559296,459.538879 
	C445.559296,459.538879 445.460754,459.637360 444.748779,459.355438 
	C440.550781,460.707581 438.378784,463.235260 439.803375,468.048920 
	C439.803375,468.048920 439.722046,468.223145 438.914001,468.136658 
	C436.017090,472.729340 432.023651,476.976776 430.446838,481.985107 
	C426.936188,493.135651 423.919586,504.503448 424.522064,516.507019 
	C424.669281,519.440918 425.696991,519.885620 428.021332,520.696716 
	C427.990723,521.093445 427.960083,521.490112 427.185638,522.126831 
	C425.098175,524.665955 425.968445,526.182007 429.032532,527.648682 
	C429.031982,528.095703 429.031433,528.542725 428.315338,529.131470 
	C428.042816,530.087646 427.317139,531.188477 427.569061,531.977173 
	C429.684998,538.602234 431.915558,545.193848 434.319275,551.719055 
	C434.564728,552.385315 436.172302,552.549744 437.722504,553.161438 
	C438.166870,554.056030 438.611237,554.950623 439.037048,556.583313 
	C439.725708,557.368286 440.414398,558.153259 441.016754,558.970581 
M585.041077,595.058167 
	C585.041077,595.058167 585.138428,595.085510 584.383484,595.121399 
	C579.402649,599.391785 580.388123,607.759094 586.832031,611.201721 
	C612.832520,637.269165 638.793579,663.376099 664.867065,689.370300 
	C670.027100,694.514648 675.619385,699.225464 681.158142,704.847473 
	C684.001526,707.371399 686.900024,708.546753 690.673523,704.974976 
	C696.235962,703.288147 699.569397,699.478455 701.858276,693.804504 
	C703.889954,689.139343 702.114929,683.604797 697.166748,680.824219 
	C678.583130,662.214600 660.023621,643.580811 641.406982,625.004272 
	C629.981201,613.603088 618.467834,602.289551 607.006226,590.464050 
	C607.006226,590.464050 607.003418,589.990723 606.948669,589.387268 
	C603.946777,587.942444 601.001465,585.546021 597.924561,585.363037 
	C595.589539,585.224182 591.275940,584.970337 590.616455,589.681641 
	C590.616455,589.681641 590.388733,589.753723 589.735535,589.440491 
	C589.181091,590.025940 588.626587,590.611450 587.968262,591.638306 
	C587.804138,591.931396 587.554138,592.078796 586.481750,592.137573 
	C586.020569,593.138916 585.559326,594.140320 585.041077,595.058167 
M499.119507,634.194641 
	C498.418030,636.317566 497.110870,638.438782 497.104614,640.563721 
	C496.982300,682.032593 496.994324,723.501953 497.087891,764.970886 
	C497.090912,766.311157 498.245483,767.648743 499.043365,769.725464 
	C499.030151,770.483154 499.016907,771.240845 498.562897,772.326233 
	C498.998444,772.880188 499.433960,773.434143 500.182404,774.613525 
	C504.589966,781.444153 510.259888,784.268372 516.226746,782.589233 
	C522.840576,780.728088 527.124207,774.915344 527.079895,766.811829 
	C526.851135,724.997559 526.975769,683.181396 526.970581,641.365906 
	C526.969482,632.720703 523.447937,627.378113 516.444031,625.334229 
	C510.230957,623.521057 504.226959,626.658508 499.119507,634.194641 
M526.718323,389.942627 
	C527.214355,389.591644 527.710388,389.240662 528.206482,388.889709 
	C527.762329,388.577911 527.318176,388.266113 526.901306,387.069397 
	C526.981689,384.708679 527.062073,382.347961 527.694336,379.909332 
	C527.978882,379.591705 528.263428,379.274078 528.547913,378.956421 
	C528.079407,378.641876 527.610962,378.327301 526.986267,377.085358 
	C527.038879,364.719299 527.091553,352.353210 527.840271,339.814941 
	C529.325623,337.674622 530.213806,335.605988 526.989258,333.343475 
	C527.040649,332.891388 527.092041,332.439270 527.891235,331.775665 
	C529.202881,328.079620 530.505981,324.384155 526.987549,320.085358 
	C526.970520,296.399109 526.953491,272.712860 527.441284,248.613052 
	C526.584839,247.089111 525.728455,245.565155 524.285950,243.795898 
	C523.178894,242.567719 522.071899,241.339523 520.840759,239.355408 
	C519.747192,238.943619 518.653564,238.531830 517.021301,238.144623 
	C516.676331,238.045013 516.331421,237.945389 515.800049,237.133926 
	C512.360657,235.053772 509.424347,235.577942 506.711548,239.108231 
	C506.711548,239.108231 506.300507,239.096619 505.519287,239.051056 
	C504.340973,240.348709 503.162659,241.646378 501.866943,243.435654 
	C501.605347,243.632248 501.343750,243.828857 500.352234,244.129333 
	C499.239624,247.135574 497.172668,250.137177 497.157990,253.148758 
	C496.946320,296.671021 496.970734,340.194794 497.128967,383.717499 
	C497.136566,385.810577 498.905304,387.897247 500.187103,390.588928 
	C502.121826,392.736603 504.056519,394.884308 506.096466,397.748444 
	C507.879547,400.836823 510.273621,400.793671 513.633911,398.917175 
	C514.073669,398.908722 514.513489,398.900238 515.336243,399.415558 
	C516.222290,398.961243 517.108398,398.506927 518.413208,397.636322 
	C518.949402,397.443237 519.485535,397.250153 520.412842,397.482727 
	C520.915771,396.909271 521.418640,396.335785 522.205933,395.178223 
	C523.515930,393.448090 524.825989,391.717926 526.718323,389.942627 
M764.084595,497.134674 
	C723.117188,497.130035 682.149475,497.201874 641.182617,497.049896 
	C633.852966,497.022705 628.278259,499.275360 624.205200,506.152069 
	C621.379333,509.944733 620.779663,513.604797 625.148193,517.612976 
	C627.768982,520.112305 630.389709,522.611633 633.179993,525.833984 
	C635.292542,526.555359 637.403198,527.899719 639.517822,527.905945 
	C681.334473,528.029358 723.151611,528.014771 764.968384,527.919861 
	C766.309082,527.916870 767.647217,526.766907 769.631897,525.984070 
	C770.075623,525.960510 770.519287,525.936951 771.372620,526.422546 
	C772.905518,525.584473 774.438477,524.746460 776.274719,523.314758 
	C778.210571,521.207092 780.146484,519.099487 782.669189,516.915100 
	C782.706116,516.244446 782.743042,515.573792 782.832336,514.062256 
	C783.850769,507.578644 780.274658,503.252380 775.874451,498.588531 
	C774.224854,498.117828 772.575317,497.647125 770.270752,497.227905 
	C769.844971,497.130341 769.419250,497.032745 768.854004,496.274811 
	C767.571228,496.497955 766.288513,496.721069 764.084595,497.134674 
M397.169525,524.136963 
	C397.766632,523.384521 398.363739,522.632080 399.051544,521.417542 
	C399.203430,521.097595 399.456451,520.937561 400.565674,520.856812 
	C401.009888,519.799377 401.454102,518.741943 401.856232,517.300232 
	C401.856232,517.300232 402.088623,516.991272 402.682251,516.905273 
	C402.687469,516.223022 402.692657,515.540771 402.827271,514.039307 
	C402.829681,512.384155 402.832092,510.729034 403.307465,508.756134 
	C402.910614,508.174408 402.513733,507.592682 401.783691,506.395325 
	C399.850372,503.948090 397.917023,501.500854 395.937744,498.461456 
	C395.282440,498.331726 394.627136,498.201996 393.136566,498.011597 
	C390.681915,497.719177 388.227753,497.176270 385.772552,497.171570 
	C342.516693,497.089081 299.260742,497.072205 255.967010,496.544159 
	C255.767181,496.324860 255.567352,496.105560 255.367538,495.886261 
	C255.233841,496.343323 255.100143,496.800385 254.869247,497.322784 
	C254.869247,497.322784 254.753510,497.304688 254.040070,497.033020 
	C250.619064,496.295288 247.978378,496.708496 247.774094,501.706024 
	C246.476868,503.472015 245.179626,505.238007 243.092438,507.036346 
	C239.395996,510.275116 240.376175,516.398865 245.516907,519.391541 
	C246.679535,520.643921 247.842163,521.896362 249.016907,523.802429 
	C250.039597,524.190369 251.062286,524.578308 252.570145,524.963440 
	C252.570145,524.963440 253.014008,525.159302 253.185608,525.876526 
	C255.303986,526.582397 257.420624,527.898132 259.540985,527.904114 
	C302.276367,528.024963 345.012299,528.036072 387.747406,527.872620 
	C389.832062,527.864624 391.909821,526.061157 394.533691,524.739929 
	C395.291046,524.358826 396.048370,523.977783 397.169525,524.136963 
M419.057739,430.516083 
	C425.796875,437.657867 440.138702,437.386444 443.558868,425.461578 
	C445.570068,418.449280 442.288239,412.958679 437.466034,408.176514 
	C423.868988,394.692444 410.260040,381.220367 396.679169,367.720001 
	C381.093872,352.227142 365.549927,336.692749 349.952332,321.212311 
	C345.606628,316.899261 339.047028,315.677887 333.882019,318.036713 
	C328.212677,320.625854 325.621735,325.454041 325.780151,332.149414 
	C325.916138,337.894745 329.382355,341.654968 333.034637,345.281281 
	C361.508881,373.552887 390.038788,401.768463 419.057739,430.516083 
z"/>
<path fill="#F3F3F3" opacity="1.000000" stroke="none" 
	d="
M458.014038,577.957886 
	C457.823242,577.677246 457.632446,577.396667 457.007568,576.790649 
	C453.708099,573.660095 450.842651,570.854980 447.977234,568.049805 
	C447.977234,568.049805 448.004364,568.004944 447.867676,567.701172 
	C446.173584,565.566956 444.616180,563.736511 443.058777,561.906067 
	C443.058777,561.906067 443.011475,561.979309 442.964355,561.659546 
	C442.300812,560.524536 441.684418,559.709229 441.068024,558.893982 
	C441.068024,558.893982 441.016754,558.970581 440.972260,558.647339 
	C440.303711,557.497864 439.679657,556.671509 439.055603,555.845215 
	C438.611237,554.950623 438.166870,554.056030 437.368073,552.681885 
	C434.352722,544.464783 431.691803,536.727295 429.030884,528.989746 
	C429.031433,528.542725 429.031982,528.095703 429.000488,526.989807 
	C428.622101,524.849548 428.275787,523.368225 427.929443,521.886841 
	C427.960083,521.490112 427.990723,521.093445 428.008820,519.997559 
	C426.626953,501.061615 430.644684,484.061584 439.722046,468.223145 
	C439.722046,468.223145 439.803375,468.048920 440.004456,467.685638 
	C441.957275,464.760712 443.709015,462.199036 445.460754,459.637360 
	C445.460754,459.637360 445.559296,459.538879 445.813141,459.252563 
	C447.529053,457.159546 448.991119,455.352783 450.453186,453.546051 
	C450.453186,453.546051 450.472229,453.466614 450.753296,453.248260 
	C452.834869,451.219635 454.635345,449.409363 456.435822,447.599091 
	C456.435822,447.599091 456.499786,447.517517 456.819824,447.329498 
	C458.905304,445.645203 460.670685,444.148926 462.436096,442.652618 
	C462.436096,442.652618 462.544922,442.566040 462.879700,442.350586 
	C469.182312,438.705048 475.150177,435.275024 481.118073,431.844971 
	C481.118073,431.845001 481.604492,431.886902 482.025391,431.593628 
	C483.004791,430.894104 483.563293,430.487854 484.121765,430.081604 
	C484.121765,430.081604 484.033051,430.038239 484.457397,430.040649 
	C496.976471,426.192749 509.364166,424.947510 521.995544,425.869324 
	C522.743042,425.943726 523.490601,426.018127 524.896729,426.270874 
	C526.702209,426.591614 527.849060,426.734070 528.995850,426.876526 
	C529.425720,426.976349 529.855652,427.076141 530.892822,427.418213 
	C539.636841,430.820465 547.773438,433.980469 555.910095,437.140472 
	C555.910095,437.140472 555.950195,437.042969 556.051025,437.352295 
	C557.087524,438.132294 558.023071,438.602997 558.958679,439.073700 
	C558.958679,439.073700 558.981201,439.000397 559.098877,439.291595 
	C560.090027,440.079773 560.963379,440.576782 561.836792,441.073761 
	C569.542725,449.263214 577.248657,457.452667 585.277283,466.214233 
	C586.446716,468.140625 587.293518,469.494873 588.140259,470.849152 
	C588.215149,471.166473 588.290100,471.483826 588.686768,472.261719 
	C597.107178,489.815369 600.510681,507.550781 597.081055,526.441956 
	C595.090637,537.405334 590.694763,547.342712 585.574890,557.067261 
	C585.574890,557.067261 585.198669,557.246765 584.989197,557.651489 
	C584.460632,558.663696 584.141602,559.271179 583.822510,559.878723 
	C583.822510,559.878723 583.927856,559.929810 583.617798,560.020264 
	C582.393677,561.465820 581.479675,562.820862 580.565613,564.175964 
	C580.565613,564.175964 580.286743,564.312744 580.045288,564.691284 
	C578.503052,566.692688 577.202332,568.315552 575.901672,569.938416 
	C575.901672,569.938416 575.985107,569.979370 575.663635,570.079102 
	C573.865112,571.775574 572.388062,573.372375 570.911011,574.969238 
	C570.561096,574.968079 570.287781,575.112244 569.710571,575.757568 
	C567.518311,577.730103 565.706543,579.346741 563.894775,580.963379 
	C563.553406,580.939758 563.273682,581.059814 562.690552,581.645325 
	C561.521851,582.573181 560.718323,583.179260 559.914795,583.785400 
	C558.795593,584.479614 557.676331,585.173828 555.937988,586.121216 
	C552.449646,587.936279 549.580444,589.498169 546.711243,591.060059 
	C546.021851,591.280457 545.332520,591.500854 543.940063,591.918762 
	C535.162781,594.091370 527.088623,596.066528 519.014404,598.041626 
	C517.616760,598.022278 516.219177,598.002991 513.962036,597.992920 
	C508.736572,597.712769 504.370514,597.423340 500.004486,597.133972 
	C499.560211,597.054321 499.115936,596.974609 498.011139,596.761414 
	C484.746307,593.978943 473.174225,588.956299 462.644806,581.535950 
	C462.644806,581.535950 462.543762,581.432556 462.251587,581.192383 
	C460.644287,579.954163 459.329163,578.955994 458.014038,577.957886 
M545.616638,560.000488 
	C546.217529,559.581299 546.818420,559.162109 547.626892,558.643127 
	C547.626892,558.643127 547.739990,558.442383 548.287842,558.114441 
	C551.778381,554.416138 555.268982,550.717834 558.795471,546.944031 
	C558.795471,546.944031 558.833679,546.869690 559.295166,546.378601 
	C574.518982,525.727783 574.088135,495.956879 558.273193,475.737061 
	C545.327942,459.186188 528.101379,450.918365 507.443054,453.350616 
	C477.216949,456.909363 456.203735,481.355316 455.953857,511.909027 
	C455.788269,532.158325 463.688141,548.758545 481.178375,560.828064 
	C482.045654,561.246704 482.912933,561.665344 484.112030,562.707947 
	C491.074005,565.093018 498.036011,567.478149 505.657990,570.017639 
	C506.105713,569.994629 506.553406,569.971558 507.811584,570.125183 
	C520.228333,571.605408 531.678711,568.942749 542.060120,562.055725 
	C542.060120,562.055725 542.106323,562.158569 542.716492,562.002869 
	C543.511963,561.357422 544.307434,560.712036 545.028381,560.013794 
	C545.028381,560.013794 545.059448,560.099670 545.616638,560.000488 
z"/>
<path fill="#F3F3F3" opacity="1.000000" stroke="none" 
	d="
M395.983704,499.053619 
	C397.917023,501.500854 399.850372,503.948090 401.919647,506.988953 
	C402.315216,508.079681 402.574860,508.576813 402.834473,509.073914 
	C402.832092,510.729034 402.829681,512.384155 402.517273,514.624146 
	C402.167725,515.803040 402.128174,516.397156 402.088623,516.991272 
	C402.088623,516.991272 401.856232,517.300232 401.598022,517.667969 
	C400.830109,519.002991 400.320374,519.970276 399.810638,520.937500 
	C399.456451,520.937561 399.203430,521.097595 398.747437,521.758362 
	C397.897461,522.598328 397.351593,523.097534 396.805725,523.596680 
	C396.048370,523.977783 395.291046,524.358826 393.840179,524.931763 
	C391.054718,525.425659 388.963074,525.988647 386.870758,525.991150 
	C344.850922,526.041687 302.830902,526.043152 260.811066,525.989563 
	C258.211700,525.986267 255.613007,525.448425 253.014008,525.159302 
	C253.014008,525.159302 252.570145,524.963440 252.140289,524.720093 
	C250.808563,524.034058 249.906677,523.591431 249.004791,523.148804 
	C247.842163,521.896362 246.679535,520.643921 245.186081,518.779663 
	C244.530975,514.446594 244.206696,510.725311 243.882401,507.004028 
	C245.179626,505.238007 246.476868,503.472015 248.229080,501.273865 
	C250.707214,499.662689 252.730362,498.483673 254.753510,497.304688 
	C254.753510,497.304688 254.869247,497.322784 255.195343,497.321960 
	C255.682541,497.227814 255.843674,497.134491 256.004791,497.041138 
	C299.260742,497.072205 342.516693,497.089081 385.772552,497.171570 
	C388.227753,497.176270 390.681915,497.719177 393.701721,498.302826 
	C394.839142,498.747253 395.411438,498.900421 395.983704,499.053619 
z"/>
<path fill="#F3F3F3" opacity="1.000000" stroke="none" 
	d="
M633.010498,525.110962 
	C630.389709,522.611633 627.768982,520.112305 625.009521,516.897705 
	C624.885986,512.791016 624.901184,509.399689 624.916382,506.008331 
	C628.278259,499.275360 633.852966,497.022705 641.182617,497.049896 
	C682.149475,497.201874 723.117188,497.130035 764.939697,497.116150 
	C766.861023,497.043518 767.927246,496.989349 768.993469,496.935181 
	C769.419250,497.032745 769.844971,497.130341 770.846680,497.439331 
	C772.915466,498.200684 774.408325,498.750610 775.901123,499.300537 
	C780.274658,503.252380 783.850769,507.578644 782.582520,514.671692 
	C782.249268,515.851379 782.165833,516.421570 782.082336,516.991821 
	C780.146484,519.099487 778.210571,521.207092 775.779541,523.679199 
	C773.843933,524.666870 772.403503,525.290100 770.963013,525.913391 
	C770.519287,525.936951 770.075623,525.960510 768.844971,526.006104 
	C725.651611,526.030762 683.245178,526.049622 640.838806,525.996155 
	C638.229004,525.992859 635.619934,525.419250 633.010498,525.110962 
z"/>
<path fill="#F3F3F3" opacity="1.000000" stroke="none" 
	d="
M418.804596,430.258728 
	C390.038788,401.768463 361.508881,373.552887 333.034637,345.281281 
	C329.382355,341.654968 325.916138,337.894745 325.780151,332.149414 
	C325.621735,325.454041 328.212677,320.625854 333.882019,318.036713 
	C339.047028,315.677887 345.606628,316.899261 349.952332,321.212311 
	C365.549927,336.692749 381.093872,352.227142 396.679169,367.720001 
	C410.260040,381.220367 423.868988,394.692444 437.466034,408.176514 
	C442.288239,412.958679 445.570068,418.449280 443.558868,425.461578 
	C440.138702,437.386444 425.796875,437.657867 418.804596,430.258728 
z"/>
<path fill="#F4F4F4" opacity="1.000000" stroke="none" 
	d="
M520.021667,397.057007 
	C519.485535,397.250153 518.949402,397.443237 517.880249,397.840546 
	C516.549255,398.327118 515.751282,398.609436 514.953247,398.891785 
	C514.513489,398.900238 514.073669,398.908722 512.951782,398.920868 
	C510.176880,398.293732 508.084045,397.662872 505.991211,397.032013 
	C504.056519,394.884308 502.121826,392.736603 499.982239,389.871002 
	C499.513947,386.869659 499.023163,384.586487 499.020752,382.302795 
	C498.976105,340.225525 498.933441,298.148041 499.082458,256.071289 
	C499.096680,252.053696 500.385193,248.040634 501.082153,244.025452 
	C501.343750,243.828857 501.605347,243.632248 502.220032,243.051117 
	C503.815582,241.476593 505.058044,240.286606 506.300507,239.096619 
	C506.300507,239.096619 506.711548,239.108231 507.263763,238.920471 
	C510.539459,238.437057 513.262939,238.141418 515.986450,237.845764 
	C516.331421,237.945389 516.676331,238.045013 517.487305,238.405396 
	C518.957214,239.147903 519.960999,239.629623 520.964844,240.111328 
	C522.071899,241.339523 523.178894,242.567719 524.664673,244.252930 
	C525.674438,246.148849 526.305481,247.587738 526.936462,249.026627 
	C526.953491,272.712860 526.970520,296.399109 527.003174,321.002533 
	C527.060303,325.275543 527.101868,328.631348 527.143433,331.987183 
	C527.092041,332.439270 527.040649,332.891388 527.004028,334.101501 
	C527.060547,336.568726 527.102356,338.277954 527.144165,339.987152 
	C527.091553,352.353210 527.038879,364.719299 527.002197,377.876160 
	C527.059631,379.107086 527.101013,379.547150 527.142456,379.987244 
	C527.062073,382.347961 526.981689,384.708679 526.654541,387.687683 
	C526.317200,388.866547 526.226624,389.427155 526.135986,389.987762 
	C524.825989,391.717926 523.515930,393.448090 521.790771,395.572815 
	C520.924316,396.330597 520.472961,396.693787 520.021667,397.057007 
z"/>
<path fill="#F4F4F4" opacity="1.000000" stroke="none" 
	d="
M587.218262,592.080627 
	C587.554138,592.078796 587.804138,591.931396 588.279175,591.322693 
	C589.189636,590.589294 589.789185,590.171509 590.388733,589.753723 
	C590.388733,589.753723 590.616455,589.681641 591.020508,589.401001 
	C596.384338,587.076599 601.184326,587.500488 605.946594,590.307861 
	C606.362488,590.686401 606.678162,590.811523 606.993835,590.936646 
	C618.467834,602.289551 629.981201,613.603088 641.406982,625.004272 
	C660.023621,643.580811 678.583130,662.214600 697.602173,681.297974 
	C699.070923,685.843689 700.104248,689.915649 701.137573,693.987610 
	C699.569397,699.478455 696.235962,703.288147 689.904907,705.035889 
	C686.428223,704.776672 683.720276,704.456482 681.012268,704.136230 
	C675.619385,699.225464 670.027100,694.514648 664.867065,689.370300 
	C638.793579,663.376099 612.832520,637.269165 586.435913,610.676514 
	C583.196533,605.281555 583.473572,600.225037 585.138428,595.085510 
	C585.138428,595.085510 585.041077,595.058167 585.344299,594.939148 
	C586.171082,593.906982 586.694702,592.993835 587.218262,592.080627 
z"/>
<path fill="#F4F4F4" opacity="1.000000" stroke="none" 
	d="
M499.003662,771.998535 
	C499.016907,771.240845 499.030151,770.483154 499.012756,768.891968 
	C498.985992,725.821045 498.975922,683.583557 499.029449,641.346191 
	C499.032562,638.901917 499.553040,636.458374 499.832764,634.014465 
	C504.226959,626.658508 510.230957,623.521057 516.444031,625.334229 
	C523.447937,627.378113 526.969482,632.720703 526.970581,641.365906 
	C526.975769,683.181396 526.851135,724.997559 527.079895,766.811829 
	C527.124207,774.915344 522.840576,780.728088 516.226746,782.589233 
	C510.259888,784.268372 504.589966,781.444153 500.059570,774.015869 
	C499.625702,772.944946 499.314667,772.471741 499.003662,771.998535 
z"/>
<path fill="#050405" opacity="1.000000" stroke="none" 
	d="
M500.717194,244.077393 
	C500.385193,248.040634 499.096680,252.053696 499.082458,256.071289 
	C498.933441,298.148041 498.976105,340.225525 499.020752,382.302795 
	C499.023163,384.586487 499.513947,386.869659 499.815643,389.570007 
	C498.905304,387.897247 497.136566,385.810577 497.128967,383.717499 
	C496.970734,340.194794 496.946320,296.671021 497.157990,253.148758 
	C497.172668,250.137177 499.239624,247.135574 500.717194,244.077393 
z"/>
<path fill="#050405" opacity="1.000000" stroke="none" 
	d="
M253.099808,525.517944 
	C255.613007,525.448425 258.211700,525.986267 260.811066,525.989563 
	C302.830902,526.043152 344.850922,526.041687 386.870758,525.991150 
	C388.963074,525.988647 391.054718,525.425659 393.568726,525.108765 
	C391.909821,526.061157 389.832062,527.864624 387.747406,527.872620 
	C345.012299,528.036072 302.276367,528.024963 259.540985,527.904114 
	C257.420624,527.898132 255.303986,526.582397 253.099808,525.517944 
z"/>
<path fill="#050405" opacity="1.000000" stroke="none" 
	d="
M633.095215,525.472473 
	C635.619934,525.419250 638.229004,525.992859 640.838806,525.996155 
	C683.245178,526.049622 725.651611,526.030762 768.522278,526.089966 
	C767.647217,526.766907 766.309082,527.916870 764.968384,527.919861 
	C723.151611,528.014771 681.334473,528.029358 639.517822,527.905945 
	C637.403198,527.899719 635.292542,526.555359 633.095215,525.472473 
z"/>
<path fill="#050405" opacity="1.000000" stroke="none" 
	d="
M499.476135,634.104553 
	C499.553040,636.458374 499.032562,638.901917 499.029449,641.346191 
	C498.975922,683.583557 498.985992,725.821045 498.922729,768.523071 
	C498.245483,767.648743 497.090912,766.311157 497.087891,764.970886 
	C496.994324,723.501953 496.982300,682.032593 497.104614,640.563721 
	C497.110870,638.438782 498.418030,636.317566 499.476135,634.104553 
z"/>
<path fill="#0F0F0F" opacity="1.000000" stroke="none" 
	d="
M585.898438,557.272583 
	C590.694763,547.342712 595.090637,537.405334 597.081055,526.441956 
	C600.510681,507.550781 597.107178,489.815369 588.922607,472.356628 
	C590.310791,473.445984 592.313293,474.647003 593.157898,476.404510 
	C595.499634,481.277191 597.358887,486.381683 599.753601,492.237671 
	C599.753601,494.742157 599.214722,498.634949 599.848389,502.326477 
	C602.361206,516.965332 600.018860,530.799805 593.881348,544.159668 
	C592.175110,547.873840 590.730286,551.711060 588.936584,555.379944 
	C588.486023,556.301331 587.150757,556.790222 585.898438,557.272583 
z"/>
<path fill="#0F0F0F" opacity="1.000000" stroke="none" 
	d="
M439.318024,468.179901 
	C430.644684,484.061584 426.626953,501.061615 427.931580,519.706909 
	C425.696991,519.885620 424.669281,519.440918 424.522064,516.507019 
	C423.919586,504.503448 426.936188,493.135651 430.446838,481.985107 
	C432.023651,476.976776 436.017090,472.729340 439.318024,468.179901 
z"/>
<path fill="#0F0F0F" opacity="1.000000" stroke="none" 
	d="
M521.931519,425.488098 
	C509.364166,424.947510 496.976471,426.192749 484.479431,430.084839 
	C485.404297,429.126709 486.624786,427.468567 488.075989,427.233185 
	C497.800262,425.656036 507.561096,424.274384 517.345154,423.128967 
	C518.756042,422.963837 520.355347,424.407623 521.931519,425.488098 
z"/>
<path fill="#0F0F0F" opacity="1.000000" stroke="none" 
	d="
M462.505371,581.887939 
	C473.174225,588.956299 484.746307,593.978943 497.675293,596.813965 
	C497.096802,597.533569 496.003082,598.703857 495.320709,598.499634 
	C490.010437,596.910278 484.677063,595.305969 479.555084,593.207764 
	C475.205444,591.425903 471.026581,589.150696 466.976501,586.749084 
	C465.180054,585.683838 463.887329,583.769043 462.505371,581.887939 
z"/>
<path fill="#0F0F0F" opacity="1.000000" stroke="none" 
	d="
M428.673096,529.060608 
	C431.691803,536.727295 434.352722,544.464783 437.080719,552.574707 
	C436.172302,552.549744 434.564728,552.385315 434.319275,551.719055 
	C431.915558,545.193848 429.684998,538.602234 427.569061,531.977173 
	C427.317139,531.188477 428.042816,530.087646 428.673096,529.060608 
z"/>
<path fill="#0F0F0F" opacity="1.000000" stroke="none" 
	d="
M519.148315,598.342957 
	C527.088623,596.066528 535.162781,594.091370 543.616577,592.111572 
	C540.725525,593.820190 537.579712,595.864868 534.150330,597.156738 
	C530.466370,598.544556 526.545166,599.380859 522.661926,600.107727 
	C521.661743,600.295044 520.415527,599.167664 519.148315,598.342957 
z"/>
<path fill="#0F0F0F" opacity="1.000000" stroke="none" 
	d="
M555.899902,436.774719 
	C547.773438,433.980469 539.636841,430.820465 531.224243,427.409668 
	C531.220032,426.596069 531.645264,425.515533 531.741638,425.544098 
	C540.276978,428.074707 549.014221,430.189728 555.899902,436.774719 
z"/>
<path fill="#0F0F0F" opacity="1.000000" stroke="none" 
	d="
M480.893311,431.562439 
	C475.150177,435.275024 469.182312,438.705048 462.929321,442.301849 
	C462.544586,442.158417 462.283295,441.791077 462.369781,441.546661 
	C463.568695,438.156250 476.904419,430.700958 480.893311,431.562439 
z"/>
<path fill="#0F0F0F" opacity="1.000000" stroke="none" 
	d="
M605.846375,590.054504 
	C601.184326,587.500488 596.384338,587.076599 591.091187,589.304810 
	C591.275940,584.970337 595.589539,585.224182 597.924561,585.363037 
	C601.001465,585.546021 603.946777,587.942444 606.686279,589.697876 
	C606.231384,590.023926 606.038879,590.039246 605.846375,590.054504 
z"/>
<path fill="#0F0F0F" opacity="1.000000" stroke="none" 
	d="
M584.760986,595.103455 
	C583.473572,600.225037 583.196533,605.281555 586.141479,610.531006 
	C580.388123,607.759094 579.402649,599.391785 584.760986,595.103455 
z"/>
<path fill="#0F0F0F" opacity="1.000000" stroke="none" 
	d="
M243.487427,507.020203 
	C244.206696,510.725311 244.530975,514.446594 244.931152,518.582825 
	C240.376175,516.398865 239.395996,510.275116 243.487427,507.020203 
z"/>
<path fill="#0F0F0F" opacity="1.000000" stroke="none" 
	d="
M500.021210,597.525940 
	C504.370514,597.423340 508.736572,597.712769 513.549072,598.066895 
	C511.093994,600.860229 502.519714,600.728943 500.021210,597.525940 
z"/>
<path fill="#0F0F0F" opacity="1.000000" stroke="none" 
	d="
M447.994568,568.414673 
	C450.842651,570.854980 453.708099,573.660095 456.748901,576.744202 
	C451.302704,577.141113 449.625122,572.995117 447.994568,568.414673 
z"/>
<path fill="#0F0F0F" opacity="1.000000" stroke="none" 
	d="
M546.834412,591.383301 
	C549.580444,589.498169 552.449646,587.936279 555.656372,586.300293 
	C554.527832,590.602234 551.484192,592.376953 546.834412,591.383301 
z"/>
<path fill="#050405" opacity="1.000000" stroke="none" 
	d="
M701.497925,693.896057 
	C700.104248,689.915649 699.070923,685.843689 697.906494,681.422852 
	C702.114929,683.604797 703.889954,689.139343 701.497925,693.896057 
z"/>
<path fill="#0F0F0F" opacity="1.000000" stroke="none" 
	d="
M445.104797,459.496399 
	C443.709015,462.199036 441.957275,464.760712 440.010681,467.589722 
	C438.378784,463.235260 440.550781,460.707581 445.104797,459.496399 
z"/>
<path fill="#050405" opacity="1.000000" stroke="none" 
	d="
M527.517334,331.881409 
	C527.101868,328.631348 527.060303,325.275543 527.081116,321.466248 
	C530.505981,324.384155 529.202881,328.079620 527.517334,331.881409 
z"/>
<path fill="#050405" opacity="1.000000" stroke="none" 
	d="
M624.560791,506.080200 
	C624.901184,509.399689 624.885986,512.791016 624.860657,516.584534 
	C620.779663,513.604797 621.379333,509.944733 624.560791,506.080200 
z"/>
<path fill="#0F0F0F" opacity="1.000000" stroke="none" 
	d="
M456.057800,447.467499 
	C454.635345,449.409363 452.834869,451.219635 450.792297,453.236053 
	C449.932343,449.451385 451.696045,447.461151 456.057800,447.467499 
z"/>
<path fill="#050405" opacity="1.000000" stroke="none" 
	d="
M681.085205,704.491882 
	C683.720276,704.456482 686.428223,704.776672 689.559631,705.152588 
	C686.900024,708.546753 684.001526,707.371399 681.085205,704.491882 
z"/>
<path fill="#050405" opacity="1.000000" stroke="none" 
	d="
M515.893250,237.489838 
	C513.262939,238.141418 510.539459,238.437057 507.415527,238.781738 
	C509.424347,235.577942 512.360657,235.053772 515.893250,237.489838 
z"/>
<path fill="#0F0F0F" opacity="1.000000" stroke="none" 
	d="
M450.061890,453.407196 
	C448.991119,455.352783 447.529053,457.159546 445.855774,459.197510 
	C445.594574,456.465546 445.035614,453.169739 450.061890,453.407196 
z"/>
<path fill="#0F0F0F" opacity="1.000000" stroke="none" 
	d="
M462.051270,442.484436 
	C460.670685,444.148926 458.905304,445.645203 456.864136,447.302643 
	C456.508667,443.999481 457.660339,441.749939 462.051270,442.484436 
z"/>
<path fill="#0F0F0F" opacity="1.000000" stroke="none" 
	d="
M254.396790,497.168854 
	C252.730362,498.483673 250.707214,499.662689 248.360504,500.972351 
	C247.978378,496.708496 250.619064,496.295288 254.396790,497.168854 
z"/>
<path fill="#050405" opacity="1.000000" stroke="none" 
	d="
M506.043823,397.390228 
	C508.084045,397.662872 510.176880,398.293732 512.630371,399.009094 
	C510.273621,400.793671 507.879547,400.836823 506.043823,397.390228 
z"/>
<path fill="#0F0F0F" opacity="1.000000" stroke="none" 
	d="
M564.291626,580.971680 
	C565.706543,579.346741 567.518311,577.730103 569.639160,575.986450 
	C570.108887,579.532349 568.210144,581.089783 564.291626,580.971680 
z"/>
<path fill="#0F0F0F" opacity="1.000000" stroke="none" 
	d="
M443.047546,562.287354 
	C444.616180,563.736511 446.173584,565.566956 447.842804,567.709351 
	C444.252747,568.132202 443.410492,565.615479 443.047546,562.287354 
z"/>
<path fill="#0F0F0F" opacity="1.000000" stroke="none" 
	d="
M427.557556,522.006836 
	C428.275787,523.368225 428.622101,524.849548 428.919098,526.663208 
	C425.968445,526.182007 425.098175,524.665955 427.557556,522.006836 
z"/>
<path fill="#0F0F0F" opacity="1.000000" stroke="none" 
	d="
M576.286133,569.948975 
	C577.202332,568.315552 578.503052,566.692688 579.996582,564.838745 
	C581.591614,568.084778 579.350647,569.166443 576.286133,569.948975 
z"/>
<path fill="#050405" opacity="1.000000" stroke="none" 
	d="
M527.492188,339.901062 
	C527.102356,338.277954 527.060547,336.568726 527.081055,334.436157 
	C530.213806,335.605988 529.325623,337.674622 527.492188,339.901062 
z"/>
<path fill="#0F0F0F" opacity="1.000000" stroke="none" 
	d="
M571.291443,574.972168 
	C572.388062,573.372375 573.865112,571.775574 575.639038,570.039673 
	C576.107727,572.930725 574.797241,574.715454 571.291443,574.972168 
z"/>
<path fill="#0F0F0F" opacity="1.000000" stroke="none" 
	d="
M528.986694,426.512634 
	C527.849060,426.734070 526.702209,426.591614 525.272339,426.242859 
	C525.758850,425.393341 526.528503,424.750153 527.298096,424.106934 
	C527.857971,424.787506 528.417786,425.468109 528.986694,426.512634 
z"/>
<path fill="#0F0F0F" opacity="1.000000" stroke="none" 
	d="
M458.018433,578.355103 
	C459.329163,578.955994 460.644287,579.954163 462.192993,581.150024 
	C459.791016,582.463745 458.299896,581.637939 458.018433,578.355103 
z"/>
<path fill="#050405" opacity="1.000000" stroke="none" 
	d="
M527.188843,248.819839 
	C526.305481,247.587738 525.674438,246.148849 524.957764,244.375595 
	C525.728455,245.565155 526.584839,247.089111 527.188843,248.819839 
z"/>
<path fill="#050405" opacity="1.000000" stroke="none" 
	d="
M771.167847,526.167969 
	C772.403503,525.290100 773.843933,524.666870 775.627930,523.976013 
	C774.438477,524.746460 772.905518,525.584473 771.167847,526.167969 
z"/>
<path fill="#050405" opacity="1.000000" stroke="none" 
	d="
M505.909912,239.073853 
	C505.058044,240.286606 503.815582,241.476593 502.278687,242.805298 
	C503.162659,241.646378 504.340973,240.348709 505.909912,239.073853 
z"/>
<path fill="#050405" opacity="1.000000" stroke="none" 
	d="
M775.887817,498.944519 
	C774.408325,498.750610 772.915466,498.200684 771.174194,497.413574 
	C772.575317,497.647125 774.224854,498.117828 775.887817,498.944519 
z"/>
<path fill="#0F0F0F" opacity="1.000000" stroke="none" 
	d="
M588.362549,470.460754 
	C587.293518,469.494873 586.446716,468.140625 585.460938,466.460388 
	C586.409607,467.447052 587.497192,468.759705 588.362549,470.460754 
z"/>
<path fill="#0F0F0F" opacity="1.000000" stroke="none" 
	d="
M580.902283,564.348022 
	C581.479675,562.820862 582.393677,561.465820 583.589600,559.968994 
	C582.993958,561.391479 582.116455,562.955750 580.902283,564.348022 
z"/>
<path fill="#0F0F0F" opacity="1.000000" stroke="none" 
	d="
M559.956055,584.081482 
	C560.718323,583.179260 561.521851,582.573181 562.620972,581.870483 
	C561.943542,582.641846 560.970459,583.509705 559.956055,584.081482 
z"/>
<path fill="#050405" opacity="1.000000" stroke="none" 
	d="
M768.923706,496.605011 
	C767.927246,496.989349 766.861023,497.043518 765.400269,497.020935 
	C766.288513,496.721069 767.571228,496.497955 768.923706,496.605011 
z"/>
<path fill="#0F0F0F" opacity="1.000000" stroke="none" 
	d="
M562.085388,440.869812 
	C560.963379,440.576782 560.090027,440.079773 559.069092,439.315674 
	C560.059021,439.587677 561.196472,440.126801 562.085388,440.869812 
z"/>
<path fill="#0F0F0F" opacity="1.000000" stroke="none" 
	d="
M249.010849,523.475586 
	C249.906677,523.591431 250.808563,524.034058 251.897705,524.721436 
	C251.062286,524.578308 250.039597,524.190369 249.010849,523.475586 
z"/>
<path fill="#050405" opacity="1.000000" stroke="none" 
	d="
M515.144775,399.153687 
	C515.751282,398.609436 516.549255,398.327118 517.670898,398.048706 
	C517.108398,398.506927 516.222290,398.961243 515.144775,399.153687 
z"/>
<path fill="#050405" opacity="1.000000" stroke="none" 
	d="
M526.427185,389.965210 
	C526.226624,389.427155 526.317200,388.866547 526.640869,388.130127 
	C527.318176,388.266113 527.762329,388.577911 528.206482,388.889709 
	C527.710388,389.240662 527.214355,389.591644 526.427185,389.965210 
z"/>
<path fill="#0F0F0F" opacity="1.000000" stroke="none" 
	d="
M441.055786,559.258667 
	C441.684418,559.709229 442.300812,560.524536 443.004639,561.642883 
	C442.409210,561.171753 441.726379,560.397583 441.055786,559.258667 
z"/>
<path fill="#0F0F0F" opacity="1.000000" stroke="none" 
	d="
M586.850037,592.109131 
	C586.694702,592.993835 586.171082,593.906982 585.372803,594.980896 
	C585.559326,594.140320 586.020569,593.138916 586.850037,592.109131 
z"/>
<path fill="#0F0F0F" opacity="1.000000" stroke="none" 
	d="
M439.046326,556.214233 
	C439.679657,556.671509 440.303711,557.497864 441.015442,558.631226 
	C440.414398,558.153259 439.725708,557.368286 439.046326,556.214233 
z"/>
<path fill="#050405" opacity="1.000000" stroke="none" 
	d="
M396.987610,523.866821 
	C397.351593,523.097534 397.897461,522.598328 398.702087,521.989380 
	C398.363739,522.632080 397.766632,523.384521 396.987610,523.866821 
z"/>
<path fill="#050405" opacity="1.000000" stroke="none" 
	d="
M400.188171,520.897156 
	C400.320374,519.970276 400.830109,519.002991 401.619080,517.860168 
	C401.454102,518.741943 401.009888,519.799377 400.188171,520.897156 
z"/>
<path fill="#050405" opacity="1.000000" stroke="none" 
	d="
M520.902832,239.733368 
	C519.960999,239.629623 518.957214,239.147903 517.756714,238.393112 
	C518.653564,238.531830 519.747192,238.943619 520.902832,239.733368 
z"/>
<path fill="#0F0F0F" opacity="1.000000" stroke="none" 
	d="
M558.911926,438.716858 
	C558.023071,438.602997 557.087524,438.132294 556.005981,437.379639 
	C556.861755,437.518433 557.863464,437.939209 558.911926,438.716858 
z"/>
<path fill="#050405" opacity="1.000000" stroke="none" 
	d="
M498.783264,772.162354 
	C499.314667,772.471741 499.625702,772.944946 499.903076,773.703125 
	C499.433960,773.434143 498.998444,772.880188 498.783264,772.162354 
z"/>
<path fill="#0F0F0F" opacity="1.000000" stroke="none" 
	d="
M590.062134,589.597107 
	C589.789185,590.171509 589.189636,590.589294 588.331116,591.101990 
	C588.626587,590.611450 589.181091,590.025940 590.062134,589.597107 
z"/>
<path fill="#0F0F0F" opacity="1.000000" stroke="none" 
	d="
M584.180115,559.852783 
	C584.141602,559.271179 584.460632,558.663696 584.945374,557.855225 
	C584.919922,558.378479 584.728821,559.102722 584.180115,559.852783 
z"/>
<path fill="#050405" opacity="1.000000" stroke="none" 
	d="
M782.375732,516.953491 
	C782.165833,516.421570 782.249268,515.851379 782.556335,515.092163 
	C782.743042,515.573792 782.706116,516.244446 782.375732,516.953491 
z"/>
<path fill="#050405" opacity="1.000000" stroke="none" 
	d="
M402.385437,516.948242 
	C402.128174,516.397156 402.167725,515.803040 402.452576,515.033691 
	C402.692657,515.540771 402.687469,516.223022 402.385437,516.948242 
z"/>
<path fill="#050405" opacity="1.000000" stroke="none" 
	d="
M403.070984,508.915039 
	C402.574860,508.576813 402.315216,508.079681 402.086243,507.296753 
	C402.513733,507.592682 402.910614,508.174408 403.070984,508.915039 
z"/>
<path fill="#050405" opacity="1.000000" stroke="none" 
	d="
M395.960724,498.757538 
	C395.411438,498.900421 394.839142,498.747253 394.119354,498.333130 
	C394.627136,498.201996 395.282440,498.331726 395.960724,498.757538 
z"/>
<path fill="#050405" opacity="1.000000" stroke="none" 
	d="
M520.217285,397.269867 
	C520.472961,396.693787 520.924316,396.330597 521.648560,395.864868 
	C521.418640,396.335785 520.915771,396.909271 520.217285,397.269867 
z"/>
<path fill="#050405" opacity="1.000000" stroke="none" 
	d="
M527.418396,379.948303 
	C527.101013,379.547150 527.059631,379.107086 527.080322,378.339874 
	C527.610962,378.327301 528.079407,378.641876 528.547913,378.956421 
	C528.263428,379.274078 527.978882,379.591705 527.418396,379.948303 
z"/>
<path fill="#0F0F0F" opacity="1.000000" stroke="none" 
	d="
M483.767242,430.064026 
	C483.563293,430.487854 483.004791,430.894104 482.194550,431.417633 
	C482.432770,431.038757 482.922729,430.542572 483.767242,430.064026 
z"/>
<path fill="#050405" opacity="1.000000" stroke="none" 
	d="
M255.985901,496.792664 
	C255.843674,497.134491 255.682541,497.227814 255.243942,497.289307 
	C255.100143,496.800385 255.233841,496.343323 255.367523,495.886261 
	C255.567352,496.105560 255.767181,496.324860 255.985901,496.792664 
z"/>
<path fill="#050405" opacity="1.000000" stroke="none" 
	d="
M605.946594,590.307861 
	C606.038879,590.039246 606.231384,590.023926 606.713623,589.999634 
	C607.003418,589.990723 607.006226,590.464050 607.000000,590.700317 
	C606.678162,590.811523 606.362488,590.686401 605.946594,590.307861 
z"/>
<path fill="#0F0F0F" opacity="1.000000" stroke="none" 
	d="
M480.886230,560.315857 
	C463.688141,548.758545 455.788269,532.158325 455.953857,511.909027 
	C456.203735,481.355316 477.216949,456.909363 507.443054,453.350616 
	C528.101379,450.918365 545.327942,459.186188 558.273193,475.737061 
	C574.088135,495.956879 574.518982,525.727783 558.700012,546.340637 
	C553.551636,545.162659 551.857483,542.635315 553.918762,538.065552 
	C554.450195,536.887329 554.653503,535.499634 554.735596,534.191101 
	C555.044922,529.261780 555.901123,524.398560 551.853577,520.107422 
	C547.583191,515.580017 543.590271,510.691589 540.141785,505.517303 
	C537.014526,500.825043 534.472839,496.060455 527.584534,497.657379 
	C527.070862,497.776459 526.411438,497.043945 525.775879,496.896851 
	C522.010376,496.025238 518.237183,495.183868 514.450073,494.413361 
	C514.051453,494.332275 513.563110,494.851410 513.086060,494.970856 
	C508.979614,495.999329 504.860168,496.975983 500.756836,498.016388 
	C497.446503,498.855713 493.203735,498.091614 492.501221,503.343719 
	C492.371277,504.315399 490.346893,505.236237 489.035461,505.814240 
	C480.938904,509.382538 476.630463,516.533203 473.144989,523.887268 
	C471.971497,526.363281 474.157013,530.403625 474.718994,533.743835 
	C474.938080,535.045959 474.702942,536.445862 475.041168,537.702576 
	C475.931854,541.011780 476.364166,544.707275 478.189514,547.440552 
	C480.940155,551.559265 482.744232,555.431580 480.886230,560.315857 
M566.890198,523.360596 
	C566.404114,522.659485 565.918091,521.958313 565.432007,521.257202 
	C565.008362,522.005249 564.584656,522.753296 564.160950,523.501282 
	C565.004761,523.684753 565.848572,523.868225 566.890198,523.360596 
M478.124664,555.584595 
	C477.930878,554.505798 477.737091,553.427002 477.543304,552.348267 
	C477.037506,552.541626 476.531708,552.735046 476.025909,552.928467 
	C476.520386,553.813293 477.014862,554.698181 478.124664,555.584595 
z"/>
<path fill="#121212" opacity="1.000000" stroke="none" 
	d="
M481.032288,560.571960 
	C482.744232,555.431580 480.940155,551.559265 478.189514,547.440552 
	C476.364166,544.707275 475.931854,541.011780 475.041168,537.702576 
	C474.702942,536.445862 474.938080,535.045959 474.718994,533.743835 
	C474.157013,530.403625 471.971497,526.363281 473.144989,523.887268 
	C476.630463,516.533203 480.938904,509.382538 489.035461,505.814240 
	C490.346893,505.236237 492.371277,504.315399 492.501221,503.343719 
	C493.203735,498.091614 497.446503,498.855713 500.756836,498.016388 
	C504.860168,496.975983 508.979614,495.999329 513.086060,494.970856 
	C513.563110,494.851410 514.051453,494.332275 514.450073,494.413361 
	C518.237183,495.183868 522.010376,496.025238 525.775879,496.896851 
	C526.411438,497.043945 527.070862,497.776459 527.584534,497.657379 
	C534.472839,496.060455 537.014526,500.825043 540.141785,505.517303 
	C543.590271,510.691589 547.583191,515.580017 551.853577,520.107422 
	C555.901123,524.398560 555.044922,529.261780 554.735596,534.191101 
	C554.653503,535.499634 554.450195,536.887329 553.918762,538.065552 
	C551.857483,542.635315 553.551636,545.162659 558.469238,546.586182 
	C558.833679,546.869690 558.795471,546.944031 558.353027,547.060974 
	C556.788330,547.442749 555.668213,547.925293 554.543518,547.936218 
	C548.248657,547.997192 548.248291,547.958252 550.121765,553.055664 
	C549.180054,555.185425 548.460022,556.813904 547.739990,558.442383 
	C547.739990,558.442383 547.626892,558.643127 547.200562,558.539551 
	C546.202698,558.990601 545.631104,559.545166 545.059448,560.099670 
	C545.059448,560.099670 545.028381,560.013794 544.697998,560.030273 
	C543.613892,560.750732 542.860107,561.454651 542.106323,562.158569 
	C542.106323,562.158569 542.060120,562.055725 541.705322,562.053223 
	C540.526428,562.099365 539.535950,561.865906 538.903076,562.239014 
	C529.908691,567.541321 520.139160,568.752075 509.933929,568.103577 
	C508.999207,568.044128 507.980713,569.302185 507.001099,569.948486 
	C506.553406,569.971558 506.105713,569.994629 505.312592,569.558533 
	C503.578766,568.211060 502.295868,567.020691 500.781860,566.491821 
	C496.477448,564.988220 492.095245,563.696350 487.706604,562.451660 
	C486.463074,562.098938 485.092529,562.194153 483.780212,562.083984 
	C482.912933,561.665344 482.045654,561.246704 481.032288,560.571960 
z"/>
<path fill="#0F0F0F" opacity="1.000000" stroke="none" 
	d="
M507.406342,570.036804 
	C507.980713,569.302185 508.999207,568.044128 509.933929,568.103577 
	C520.139160,568.752075 529.908691,567.541321 538.903076,562.239014 
	C539.535950,561.865906 540.526428,562.099365 541.753784,562.082031 
	C531.678711,568.942749 520.228333,571.605408 507.406342,570.036804 
z"/>
<path fill="#0F0F0F" opacity="1.000000" stroke="none" 
	d="
M548.013916,558.278442 
	C548.460022,556.813904 549.180054,555.185425 550.121765,553.055664 
	C548.248291,547.958252 548.248657,547.997192 554.543518,547.936218 
	C555.668213,547.925293 556.788330,547.442749 558.335083,547.098755 
	C555.268982,550.717834 551.778381,554.416138 548.013916,558.278442 
z"/>
<path fill="#0F0F0F" opacity="1.000000" stroke="none" 
	d="
M483.946106,562.395996 
	C485.092529,562.194153 486.463074,562.098938 487.706604,562.451660 
	C492.095245,563.696350 496.477448,564.988220 500.781860,566.491821 
	C502.295868,567.020691 503.578766,568.211060 504.982605,569.481323 
	C498.036011,567.478149 491.074005,565.093018 483.946106,562.395996 
z"/>
<path fill="#0F0F0F" opacity="1.000000" stroke="none" 
	d="
M542.411377,562.080688 
	C542.860107,561.454651 543.613892,560.750732 544.735229,560.056641 
	C544.307434,560.712036 543.511963,561.357422 542.411377,562.080688 
z"/>
<path fill="#0F0F0F" opacity="1.000000" stroke="none" 
	d="
M545.338013,560.050049 
	C545.631104,559.545166 546.202698,558.990601 547.096802,558.589478 
	C546.818420,559.162109 546.217529,559.581299 545.338013,560.050049 
z"/>
<path fill="#121212" opacity="1.000000" stroke="none" 
	d="
M566.791260,523.706177 
	C565.848572,523.868225 565.004761,523.684753 564.160950,523.501282 
	C564.584656,522.753296 565.008362,522.005249 565.432007,521.257202 
	C565.918091,521.958313 566.404114,522.659485 566.791260,523.706177 
z"/>
<path fill="#121212" opacity="1.000000" stroke="none" 
	d="
M477.817017,555.583801 
	C477.014862,554.698181 476.520386,553.813293 476.025909,552.928467 
	C476.531708,552.735046 477.037506,552.541626 477.543304,552.348267 
	C477.737091,553.427002 477.930878,554.505798 477.817017,555.583801 
z"/>
</svg>